<?xml version="1.0" standalone="no"?>
<!DOCTYPE svg PUBLIC "-//W3C//DTD SVG 20010904//EN"
 "http://www.w3.org/TR/2001/REC-SVG-20010904/DTD/svg10.dtd">
<svg version="1.0" xmlns="http://www.w3.org/2000/svg"
 width="60px" height="50px" viewBox="0 0 500 390"
 preserveAspectRatio="xMidYMid meet">

<g transform="translate(-400.000000,890.000000) scale(0.100000,-0.100000)"
fill="#000000" stroke="none">
<path d="M0 6400 l0 -6400 6400 0 6400 0 0 6400 0 6400 -6400 0 -6400 0 0
-6400z m6587 3337 c161 -202 260 -322 501 -610 45 -55 105 -124 132 -155 27
-32 120 -143 207 -248 87 -105 177 -213 200 -240 23 -27 68 -80 100 -119 33
-38 192 -225 354 -415 365 -428 427 -502 509 -599 36 -43 119 -140 185 -216
66 -76 149 -172 184 -214 35 -42 95 -112 133 -155 37 -43 68 -82 68 -85 0 -3
-112 -6 -249 -6 l-248 0 -46 50 c-25 28 -67 78 -93 110 -27 33 -116 139 -199
235 -164 192 -267 316 -401 485 -90 114 -252 307 -339 405 -46 53 -114 131
-451 526 -71 82 -221 258 -334 390 -180 210 -495 583 -616 729 l-41 50 84 100
c46 55 102 126 125 157 22 32 45 55 49 52 5 -3 89 -105 186 -227z m-515 -364
c9 -16 62 -77 116 -138 l99 -110 -75 -90 c-41 -49 -80 -94 -86 -100 -6 -5 -46
-53 -90 -105 -43 -52 -120 -142 -171 -200 -51 -58 -145 -166 -209 -240 -65
-74 -165 -191 -224 -259 -59 -68 -190 -216 -292 -329 -187 -207 -359 -405
-525 -602 -212 -252 -414 -486 -435 -505 -21 -19 -39 -20 -266 -23 -134 -2
-244 -1 -244 3 0 6 129 159 272 321 35 40 106 121 158 180 52 60 128 147 170
194 42 47 144 164 226 260 186 220 387 453 919 1070 54 63 131 151 171 195 66
73 142 159 367 413 45 50 86 92 92 92 6 0 18 -12 27 -27z m458 -1803 c0 -505
-3 -640 -12 -640 -7 0 -85 -1 -173 -3 l-160 -2 -3 637 -2 637 42 4 c24 2 103
4 176 5 l132 2 0 -640z m375 590 c237 -61 423 -143 613 -268 203 -136 362
-313 469 -525 l35 -70 -134 -134 -133 -134 -12 28 c-133 320 -313 515 -598
649 -142 67 -252 99 -437 129 l-38 6 0 180 0 181 63 -7 c34 -4 112 -20 172
-35z m-855 -164 c0 -129 -3 -177 -12 -183 -7 -4 -50 -20 -96 -35 -298 -100
-527 -270 -660 -489 -101 -165 -125 -304 -79 -451 35 -113 94 -194 268 -370
158 -160 186 -196 223 -289 30 -72 60 -224 48 -244 -13 -24 -184 -147 -192
-138 -4 4 -33 43 -64 85 -56 77 -151 187 -312 363 -119 130 -260 318 -299 400
-52 109 -68 184 -68 315 0 117 10 173 55 304 51 147 151 287 327 459 136 133
237 205 402 288 112 57 386 158 432 158 l27 1 0 -174z m984 -493 c-16 -24 -19
-47 -18 -143 0 -111 1 -117 33 -177 77 -144 145 -197 541 -418 216 -121 313
-189 400 -282 127 -136 202 -335 203 -541 l0 -85 61 64 c153 161 215 229 271
298 111 136 68 121 350 121 168 0 245 -3 245 -11 0 -11 -62 -82 -260 -298 -63
-69 -133 -146 -154 -171 -56 -65 -357 -398 -455 -504 -168 -181 -448 -460
-525 -522 -221 -181 -458 -299 -746 -373 -128 -33 -264 -55 -286 -47 -11 4
-14 30 -13 123 1 65 4 143 7 173 l7 54 120 24 c289 56 518 173 700 355 234
236 352 550 311 826 -17 114 -46 179 -112 258 -77 91 -164 148 -509 337 -196
108 -263 155 -342 239 -72 78 -103 148 -111 254 -10 143 48 256 202 401 81 75
112 92 80 45z m-621 -1114 c29 -16 52 -45 85 -104 l27 -50 3 -924 2 -924 -182
6 c-426 13 -809 132 -1148 356 -169 112 -313 247 -580 546 -69 76 -199 220
-290 319 -91 98 -198 216 -238 260 -131 146 -346 387 -380 427 l-34 39 250 0
250 0 123 -147 c68 -82 148 -175 179 -208 106 -116 153 -176 156 -198 4 -37
45 -118 98 -197 74 -109 341 -372 448 -441 24 -16 68 -46 98 -67 72 -51 212
-125 308 -163 182 -74 492 -159 575 -159 20 0 20 1 14 820 l-6 820 110 0 c64
0 119 -5 132 -11z m-1328 -269 c41 -142 130 -335 210 -455 101 -153 287 -303
465 -378 68 -28 204 -74 278 -93 9 -3 12 -48 12 -185 l0 -182 -38 7 c-68 10
-294 87 -389 131 -168 79 -377 227 -493 352 -148 158 -293 407 -375 645 -27
77 -27 75 55 135 30 22 93 73 139 113 75 64 86 71 92 54 4 -10 24 -75 44 -144z
m-450 -2380 c53 -23 105 -65 105 -87 0 -7 -12 -19 -27 -26 -24 -13 -31 -12
-76 11 -66 35 -150 40 -194 13 -17 -11 -37 -29 -43 -40 -14 -27 11 -53 76 -76
213 -76 266 -108 283 -173 12 -44 0 -105 -27 -141 -10 -14 -41 -37 -68 -51
-41 -21 -63 -25 -134 -25 -75 0 -91 3 -137 29 -28 15 -66 43 -84 62 -27 28
-30 35 -19 49 27 33 47 36 77 12 39 -32 75 -46 136 -53 65 -7 127 12 143 44
25 51 -3 75 -143 123 -151 51 -202 90 -210 163 -10 85 44 154 145 187 41 13
142 3 197 -21z m1095 -123 c58 -148 93 -238 110 -282 l12 -30 20 45 c11 25 44
106 74 180 30 74 64 154 74 178 l20 42 56 0 c56 0 56 0 49 -27 -3 -15 -22 -60
-41 -100 -19 -40 -34 -75 -34 -77 0 -10 -163 -372 -172 -383 -6 -7 -30 -13
-53 -13 l-43 0 -30 73 c-16 39 -54 132 -82 204 -29 73 -56 131 -60 128 -4 -2
-42 -92 -85 -200 l-79 -196 -54 3 -54 3 -45 115 c-110 289 -165 426 -174 435
-24 24 -8 35 50 35 l59 0 37 -97 c102 -266 123 -317 131 -320 5 -2 45 90 90
205 l80 207 35 5 c19 4 39 4 46 2 7 -2 35 -63 63 -135z m1450 93 l0 -50 -224
0 c-195 0 -225 2 -230 16 -8 21 -8 69 1 77 3 4 107 7 230 7 l223 0 0 -50z
m831 24 c150 -43 240 -168 226 -314 -9 -106 -70 -191 -169 -236 -59 -27 -72
-29 -224 -32 l-161 -4 -6 69 c-9 87 -9 412 -1 481 l7 52 137 0 c94 0 153 -5
191 -16z m-908 -210 l38 -7 -3 -46 -3 -46 -152 -3 -153 -3 0 -84 0 -85 175 0
c194 0 193 1 181 -65 l-7 -35 -224 0 -225 0 0 190 0 190 168 0 c92 0 184 -3
205 -6z m1367 -377 c0 -28 -50 -101 -80 -117 -24 -13 -24 -12 -4 73 17 66 17
67 50 67 29 0 34 -3 34 -23z m-2210 -297 c0 -5 -7 -10 -16 -10 -8 0 -12 5 -9
10 3 6 10 10 16 10 5 0 9 -4 9 -10z m-94 -35 c7 -30 1 -40 -21 -32 -20 8 -20
57 0 57 8 0 17 -11 21 -25z m-1026 -121 c0 -68 -3 -124 -7 -124 -30 1 -35 20
-32 131 3 105 10 136 31 123 4 -3 8 -61 8 -130z m890 96 c0 -24 5 -29 27 -32
18 -2 29 -10 31 -22 4 -16 0 -18 -27 -13 l-31 7 0 -64 c0 -57 2 -64 22 -70 33
-8 10 -26 -25 -19 -33 7 -34 7 -42 94 -5 56 -9 65 -25 65 -11 -1 -18 4 -17 9
1 6 12 9 25 7 19 -2 22 2 22 32 0 32 15 49 33 39 4 -2 7 -17 7 -33z m-440 6
c0 -13 7 -26 15 -30 21 -8 19 -38 -2 -34 -15 3 -18 -8 -21 -72 -7 -144 -42
-100 -42 54 0 51 3 96 7 99 3 4 15 7 25 7 12 0 18 -7 18 -24z m1528 -3 c2 -12
12 -23 23 -26 25 -7 25 -37 -1 -37 -18 0 -20 -7 -20 -60 0 -54 2 -60 21 -60
14 0 19 -5 17 -17 -3 -13 -12 -17 -33 -16 -38 3 -45 16 -45 91 0 59 -1 62 -25
62 -16 0 -25 6 -25 15 0 9 9 15 25 15 20 0 25 5 25 23 0 42 32 50 38 10z
m-1658 -12 c0 -12 9 -21 25 -25 36 -9 32 -36 -5 -36 -29 0 -30 -1 -30 -50 0
-39 4 -52 20 -60 11 -6 20 -15 20 -20 0 -12 -57 -14 -63 -2 -3 4 -8 53 -12
110 l-7 102 26 0 c19 0 26 -5 26 -19z m450 -105 c0 -88 -9 -120 -28 -101 -8 8
-21 176 -15 188 2 4 13 7 24 7 17 0 19 -8 19 -94z m358 64 c2 -13 1 -57 -3
-97 -5 -53 -11 -73 -21 -73 -11 0 -14 21 -14 101 0 90 2 100 18 97 9 -2 19
-14 20 -28z m414 13 c7 -4 1 -165 -8 -209 -6 -31 -54 -48 -101 -37 -22 5 -39
15 -41 25 -3 14 4 16 51 11 49 -5 56 -3 66 16 11 20 10 20 -31 15 -60 -8 -88
15 -95 79 -7 57 13 92 60 106 29 8 80 6 99 -6z m311 -15 c27 -37 17 -44 -25
-18 -29 17 -37 18 -53 6 -21 -15 -12 -36 16 -36 28 0 75 -26 83 -46 10 -26 -3
-54 -31 -65 -30 -11 -95 4 -113 26 -19 23 -3 31 33 16 49 -20 72 -19 72 3 0
14 -12 22 -44 32 -24 7 -48 19 -52 26 -43 67 66 121 114 56z m647 17 c0 -9
-12 -18 -30 -21 -29 -6 -29 -8 -32 -77 -2 -45 -7 -72 -15 -75 -10 -3 -13 19
-13 86 0 86 1 91 23 95 48 9 67 7 67 -8z m165 -10 c49 -48 28 -79 -57 -82 -35
-1 -64 -2 -66 -3 -1 0 2 -8 7 -19 15 -27 55 -34 96 -17 37 16 56 6 36 -18 -23
-28 -69 -39 -101 -26 -41 17 -60 46 -60 93 0 81 92 126 145 72z m-2763 -2 c10
-9 18 -22 18 -30 0 -11 -5 -11 -29 3 -76 45 -141 -53 -66 -102 22 -14 27 -14
56 0 42 21 52 20 37 -4 -43 -68 -158 -31 -158 52 0 38 18 74 44 86 32 16 77
14 98 -5z m279 4 c44 -34 48 -103 8 -145 -44 -48 -149 -11 -149 53 0 36 27 84
53 95 31 13 69 11 88 -3z m479 -7 c6 -11 10 -53 8 -93 -2 -56 -6 -72 -18 -72
-12 0 -16 16 -18 70 -3 72 -10 85 -48 85 -26 0 -33 -15 -41 -92 -4 -39 -10
-58 -19 -58 -11 0 -14 19 -14 80 0 92 6 98 92 99 38 1 50 -3 58 -19z m366 -67
c-3 -49 -6 -91 -6 -95 0 -5 -6 -8 -14 -8 -17 0 -26 44 -26 126 0 62 1 64 25
64 l26 0 -5 -87z m288 81 c13 -5 16 -23 16 -89 0 -49 -4 -87 -11 -90 -16 -11
-20 -2 -26 74 -5 64 -8 72 -29 77 -47 12 -54 1 -54 -81 0 -60 -3 -75 -15 -75
-12 0 -15 17 -15 89 0 85 1 90 23 94 36 7 94 7 111 1z m846 -7 c0 -7 -10 -17
-22 -22 -15 -6 -26 -24 -32 -48 -12 -47 0 -71 38 -75 31 -4 25 -22 -8 -22 -34
0 -76 43 -76 79 0 36 17 83 33 93 20 12 67 9 67 -5z m155 7 c37 -15 57 -93 34
-137 -16 -30 -28 -37 -70 -37 -52 0 -99 45 -99 93 0 60 74 104 135 81z m-6391
-1173 c3 -5 -2 -8 -12 -7 -11 0 -18 -7 -20 -21 -3 -18 2 -23 19 -23 18 0 19 2
9 15 -10 12 -9 15 5 15 23 0 15 -34 -9 -38 -27 -6 -48 25 -35 49 10 20 34 25
43 10z m71 -31 c-9 -41 -17 -33 -9 9 4 17 9 30 11 27 3 -2 2 -19 -2 -36z
m-171 -5 c20 -31 20 -36 0 -28 -9 3 -20 0 -25 -8 -6 -10 -9 -2 -9 24 0 43 11
47 34 12z m251 -2 l7 -28 9 24 c5 13 12 22 14 19 3 -3 1 -17 -5 -32 -10 -27
-30 -27 -30 0 0 8 -4 14 -10 14 -5 0 -10 -7 -10 -17 0 -9 -2 -14 -5 -11 -8 8
5 58 15 58 4 0 11 -12 15 -27z m-334 -46 c9 -16 8 -17 -10 -5 -12 7 -21 22
-21 33 0 21 6 16 31 -28z m449 22 c12 -8 10 -9 -7 -4 -21 6 -33 -8 -15 -18 4
-2 1 -2 -5 -1 -16 4 -17 -8 -1 -24 7 -7 8 -12 2 -12 -24 0 -33 23 -17 46 17
27 22 28 43 13z m-477 -41 c-2 -5 -12 -3 -20 4 -14 11 -15 10 -8 -12 7 -24 7
-24 -9 -5 -25 33 -21 45 13 32 17 -6 27 -15 24 -19z m565 -42 c-3 -23 -34 -32
-58 -17 -12 8 -11 14 9 35 19 20 27 23 38 14 8 -6 13 -21 11 -32z m-643 4 c27
-30 12 -34 -15 -5 -13 14 -19 25 -13 25 5 0 18 -9 28 -20z m-85 -100 c14 -11
21 -20 15 -20 -5 0 -21 9 -35 20 -14 11 -20 20 -15 20 6 0 21 -9 35 -20z m465
-5 c14 -13 25 -36 25 -50 0 -14 -11 -37 -25 -50 -13 -14 -36 -25 -50 -25 -33
0 -75 42 -75 75 0 14 11 37 25 50 13 14 36 25 50 25 14 0 37 -11 50 -25z m340
5 c-18 -19 -17 -20 5 -20 23 0 23 0 4 -21 -18 -20 -18 -20 11 -14 23 5 26 4
15 -4 -18 -13 -50 -14 -50 -3 0 4 6 14 13 21 10 10 8 12 -8 11 -36 -4 -39 0
-15 25 28 29 51 34 25 5z m-858 -77 c14 -17 14 -17 9 0 -4 13 0 17 22 16 16
-1 20 -3 10 -6 -9 -2 -18 -13 -20 -25 -3 -19 -4 -19 -27 6 -14 14 -21 26 -16
26 4 0 14 -8 22 -17z m687 -40 c3 -10 12 -49 21 -87 22 -98 15 -103 -93 -69
-46 14 -86 33 -90 41 -3 10 16 35 59 73 66 60 94 71 103 42z m226 -3 c-8 -5
-24 -9 -35 -9 l-20 0 20 9 c11 5 27 9 35 9 13 1 13 0 0 -9z m-517 -99 c24 -56
30 -61 87 -87 76 -34 75 -49 -4 -89 -52 -26 -63 -37 -85 -85 -15 -31 -33 -55
-41 -55 -8 0 -29 26 -45 59 -26 51 -37 62 -85 85 -31 14 -55 33 -55 41 0 8 26
27 58 43 50 25 62 35 79 75 40 92 56 94 91 13z m550 -1 c-2 -2 -7 1 -11 7 -4
6 -18 13 -32 16 -25 4 -25 4 3 6 18 1 27 7 28 19 1 9 4 4 8 -13 4 -16 6 -32 4
-35z m-955 12 c-22 -4 -24 -32 -3 -32 8 0 15 -4 15 -8 0 -4 -17 -6 -37 -3 -21
3 -30 6 -20 9 18 4 24 32 7 32 -5 0 -10 4 -10 8 0 5 15 6 33 3 19 -3 25 -6 15
-9z m950 -70 c-21 -4 -24 -28 -5 -35 6 -3 -4 -5 -23 -5 -19 0 -27 2 -17 5 21
5 23 33 2 33 -8 0 -15 4 -15 8 0 4 17 6 38 3 20 -3 29 -6 20 -9z m-988 -33 c0
-7 10 -9 25 -7 14 3 25 1 25 -3 0 -5 -11 -9 -24 -9 -15 0 -26 -7 -28 -17 -3
-11 -6 -5 -9 15 -3 17 -2 32 3 32 4 0 8 -5 8 -11z m55 -89 c-11 -5 -27 -9 -35
-9 -13 -1 -13 0 0 9 8 5 24 9 35 9 l20 0 -20 -9z m900 -58 c-3 -3 -12 3 -21
14 -13 16 -15 17 -10 2 4 -13 0 -18 -15 -18 -19 0 -19 1 -5 16 9 8 13 21 9 27
-3 7 6 1 20 -12 15 -14 25 -27 22 -29z m-865 0 c0 -4 -6 -14 -12 -21 -11 -10
-9 -12 7 -11 36 4 39 0 15 -25 -28 -29 -51 -34 -25 -5 18 19 17 20 -5 20 -22
0 -23 1 -5 20 18 20 18 20 -16 15 -26 -4 -29 -3 -14 4 25 12 55 14 55 3z m810
-63 c17 -13 18 -17 5 -10 -33 17 -51 31 -40 31 6 0 21 -10 35 -21z m-680 -89
c0 -4 -10 -16 -23 -28 -18 -17 -26 -19 -35 -10 -30 30 -4 73 34 56 13 -6 24
-14 24 -18z m605 -28 c-7 -7 -45 29 -45 41 0 6 11 0 25 -13 14 -13 23 -26 20
-28z m-55 -39 c0 -8 -7 -8 -29 0 -17 6 -27 15 -24 19 2 5 12 3 20 -4 14 -11
15 -10 8 12 -7 24 -7 24 9 5 8 -11 16 -25 16 -32z m-482 24 c8 -9 6 -19 -7
-36 -15 -20 -21 -22 -37 -12 -18 11 -17 11 4 6 23 -7 32 9 10 18 -8 3 -5 6 6
6 15 1 16 4 6 16 -7 8 -8 15 -2 15 5 0 14 -6 20 -13z m418 -21 c16 -16 19 -40
4 -31 -12 8 -33 45 -25 45 4 0 13 -6 21 -14z m-346 -32 c0 -8 5 -14 10 -14 6
0 10 8 10 17 0 9 2 14 5 11 8 -8 -5 -58 -15 -58 -4 0 -11 12 -15 28 l-7 27 -9
-24 c-5 -13 -12 -22 -14 -19 -3 3 -1 17 5 32 10 27 30 27 30 0z m275 -42 c-6
-6 -44 36 -45 50 0 3 9 4 20 1 12 -3 21 0 22 8 0 8 3 -1 5 -19 3 -19 2 -37 -2
-40z m-194 7 c-6 -16 -10 -18 -10 -7 -1 22 12 55 16 42 2 -6 -1 -22 -6 -35z
m108 27 c9 -11 10 -20 1 -35 -11 -22 -35 -28 -44 -12 -3 5 2 8 12 7 11 0 18 7
20 22 3 17 -2 22 -19 22 -18 0 -19 -2 -9 -15 8 -9 9 -15 2 -15 -15 0 -25 18
-17 30 9 15 41 12 54 -4z"/>
<path d="M7780 3451 l0 -189 54 -6 c71 -9 172 9 218 40 99 64 102 224 7 297
-46 34 -99 47 -196 47 l-83 0 0 -189z"/>
<path d="M6566 2708 c-22 -31 -20 -52 8 -85 20 -23 28 -26 43 -17 10 6 25 23
33 37 13 24 13 30 0 55 -21 36 -62 41 -84 10z"/>
<path d="M7710 2715 c-19 -23 -2 -36 38 -29 46 8 48 10 32 29 -16 19 -54 19
-70 0z"/>
<path d="M5240 2712 c-27 -22 -29 -65 -5 -92 23 -25 40 -25 65 0 27 27 25 62
-3 88 -28 27 -29 27 -57 4z"/>
<path d="M7370 2714 c-31 -36 -2 -114 41 -114 23 0 49 37 49 71 0 48 -62 78
-90 43z"/>
<path d="M940 1540 c0 -5 5 -10 11 -10 5 0 7 5 4 10 -3 6 -8 10 -11 10 -2 0
-4 -4 -4 -10z"/>
<path d="M1377 1453 c-14 -13 -6 -33 13 -33 13 0 20 7 20 20 0 19 -20 27 -33
13z"/>
<path d="M750 719 c0 -14 5 -19 17 -17 26 5 29 38 4 38 -15 0 -21 -6 -21 -21z"/>
<path d="M1205 620 c3 -5 8 -10 11 -10 2 0 4 5 4 10 0 6 -5 10 -11 10 -5 0 -7
-4 -4 -10z"/>
</g>
</svg>
